<svg version="1.1" id="Layer_1" xmlns="http://www.w3.org/2000/svg" xmlns:xlink="http://www.w3.org/1999/xlink" x="0px" y="0px"
	 width="100%" viewBox="0 0 1024 576" enable-background="new 0 0 1024 576" xml:space="preserve">
<path fill="#000000" opacity="1.000000" stroke="none" 
	d="
M484.144714,228.000916 
	C484.137817,240.328720 483.979523,252.159607 484.200867,263.983368 
	C484.287476,268.609863 482.961212,270.454803 478.000549,270.400909 
	C455.846313,270.160309 433.684784,270.511536 411.532379,270.194550 
	C380.646881,269.752594 355.773712,243.316071 357.935272,212.567200 
	C359.396667,191.778122 369.763763,175.723022 387.881836,165.170364 
	C391.612488,162.997482 392.848083,160.582794 392.837189,156.456787 
	C392.782104,135.510773 406.424011,120.389214 427.274109,119.308395 
	C443.988068,118.441986 461.276337,130.249680 463.929138,151.217422 
	C464.075348,152.372864 464.107452,153.542282 464.224304,154.701996 
	C464.477661,157.216614 465.821564,158.745468 468.395813,158.772797 
	C471.265747,158.803284 472.596832,157.076157 472.715210,154.350250 
	C473.091003,145.697357 470.225220,137.951660 465.678497,130.812134 
	C463.908417,128.032669 461.603668,125.538033 459.260437,123.195824 
	C457.174683,121.110939 457.062439,119.507210 459.075439,117.290298 
	C474.566498,100.229980 493.355560,90.605652 516.764954,89.542114 
	C552.557922,87.915977 585.116211,114.369766 592.671082,150.636139 
	C592.942261,151.937912 593.056763,153.272827 593.338623,154.571838 
	C594.246399,158.755905 592.675964,160.336136 588.359558,160.075867 
	C584.051636,159.816101 579.700562,160.068069 575.379578,160.301743 
	C572.435181,160.460968 569.354126,161.171173 569.473694,164.933716 
	C569.598511,168.857880 572.752502,168.881119 575.720825,168.862732 
	C584.682495,168.807190 593.667664,167.792557 602.511108,170.453735 
	C625.595276,177.400223 642.022034,201.722260 639.072693,224.828247 
	C635.773804,250.671860 615.065735,269.827240 589.441406,270.213684 
	C568.955322,270.522644 548.460571,270.224548 527.970886,270.365112 
	C524.063477,270.391907 522.693665,269.004059 522.723450,265.124359 
	C522.849854,248.632736 522.774536,232.139496 522.752563,215.646866 
	C522.737061,203.994064 514.370300,195.325089 503.250092,195.400894 
	C492.422455,195.474701 484.226715,204.089752 484.147552,215.506180 
	C484.119843,219.504303 484.144409,223.502808 484.144714,228.000916 
z"/>
<path fill="#000000" opacity="1.000000" stroke="none" 
	d="
M453.225983,292.267212 
	C452.122650,286.797546 454.107758,282.940155 458.533081,280.663818 
	C463.153931,278.286865 467.696472,279.103729 471.382111,282.791412 
	C478.078217,289.491333 484.619202,296.346313 491.499512,303.418793 
	C493.280914,301.162201 492.752228,299.312378 492.754822,297.646149 
	C492.796906,270.837616 492.767273,244.028976 492.809174,217.220428 
	C492.821655,209.229431 496.557495,204.791718 503.176788,204.625549 
	C510.090851,204.451981 514.201599,209.000702 514.211975,217.065140 
	C514.240967,239.544342 514.205322,262.023621 514.196472,284.502869 
	C514.194092,290.465881 514.196045,296.428925 514.196045,302.470490 
	C516.638794,302.600433 517.411926,300.873230 518.507812,299.798462 
	C524.094849,294.319153 529.539917,288.694519 535.148743,283.238037 
	C539.910217,278.605988 546.851868,278.267670 550.812439,282.286591 
	C555.359802,286.900970 555.265808,292.625458 550.170654,297.768585 
	C537.280212,310.780487 524.321350,323.726196 511.267212,336.573761 
	C506.100769,341.658386 500.687531,341.571777 495.448059,336.431244 
	C482.731171,323.954712 470.123199,311.367157 457.481781,298.813782 
	C455.696991,297.041412 454.138367,295.098175 453.225983,292.267212 
z"/>
<path fill="#000000" opacity="1.000000" stroke="none" 
	d="
M689.009888,454.204529 
	C675.061768,454.192413 675.052063,454.192413 675.045776,440.804504 
	C675.040222,428.817169 675.164246,416.828461 675.011963,404.843170 
	C674.957031,400.521637 676.172791,398.422028 680.963257,398.639771 
	C690.814392,399.087585 690.924622,396.827972 690.888733,408.716309 
	C690.863159,417.207306 691.036804,425.704071 690.761902,434.186646 
	C690.645142,437.788635 691.854187,438.868988 695.304565,438.731812 
	C700.747314,438.515381 706.204956,438.674194 713.109436,438.674194 
	C708.683472,432.653992 705.270508,427.435089 701.255127,422.730316 
	C697.984314,418.898193 697.714355,415.926849 701.123474,411.986816 
	C705.103821,407.386658 708.431763,402.222015 712.960205,396.052368 
	C702.699219,396.052368 693.804138,396.049194 684.908997,396.053192 
	C675.042480,396.057617 672.863708,393.168762 675.208252,383.433228 
	C675.691101,381.428253 676.756470,380.680176 678.681274,380.681366 
	C695.496704,380.691803 712.312134,380.681000 729.127563,380.687805 
	C730.682007,380.688446 732.480713,380.865875 732.576599,382.763000 
	C732.848633,388.145172 734.318176,393.684296 730.478210,398.609131 
	C726.692932,403.463898 723.265869,408.601318 719.410889,413.397125 
	C717.288025,416.038086 717.029236,418.114502 719.228638,420.846710 
	C722.670227,425.122162 725.480286,429.932648 729.120483,434.014740 
	C733.696533,439.146149 733.151489,445.009796 732.658508,450.992004 
	C732.388184,454.272949 729.864197,454.198669 727.467651,454.198822 
	C714.814209,454.199524 702.160828,454.202393 689.009888,454.204529 
z"/>
<path fill="#000000" opacity="1.000000" stroke="none" 
	d="
M190.183640,395.269043 
	C185.824844,401.638123 181.700195,407.696808 177.239624,413.497253 
	C175.138794,416.229095 175.059540,418.387024 177.191299,421.026184 
	C179.910538,424.392609 182.044250,428.295502 185.059250,431.345520 
	C190.453079,436.802002 190.803696,443.337494 190.427811,450.300629 
	C190.278244,453.071075 189.047791,454.178802 186.417618,454.175873 
	C169.924530,454.157318 153.431442,454.148285 136.938385,454.162445 
	C134.181793,454.164825 132.995972,452.694824 132.994278,450.127991 
	C132.983871,434.301514 132.996811,418.475067 133.016907,402.648590 
	C133.020218,400.041626 134.206848,398.677246 136.986923,398.717377 
	C149.334579,398.895538 148.894653,396.832855 148.919617,409.866150 
	C148.934280,417.529633 149.135727,425.201111 148.848145,432.853760 
	C148.673706,437.495911 150.378937,439.073090 154.938568,438.749939 
	C159.727509,438.410522 164.559189,438.673950 169.763840,438.673950 
	C169.147522,434.400116 166.125183,432.096588 164.054306,429.300690 
	C155.115082,417.231842 155.081894,417.271881 163.997162,405.410675 
	C165.988693,402.761047 167.879333,400.035614 169.855316,397.291046 
	C168.180267,395.516907 166.253021,396.249298 164.572464,396.223663 
	C155.911285,396.091431 147.246002,395.964081 138.586502,396.104340 
	C134.595032,396.169006 132.916107,394.837891 132.876083,390.649536 
	C132.780548,380.651276 132.621521,380.653778 142.387466,380.651917 
	C156.381851,380.649231 170.380020,380.829376 184.368546,380.541565 
	C189.277328,380.440552 190.991730,382.140167 190.454971,386.865723 
	C190.155655,389.500702 190.322998,392.188690 190.183640,395.269043 
z"/>
<path fill="#000000" opacity="1.000000" stroke="none" 
	d="
M771.999939,454.220398 
	C761.839539,454.210571 752.176758,454.072174 742.519775,454.250732 
	C738.408142,454.326752 736.897400,452.738464 736.916565,448.683624 
	C737.014893,427.864258 736.999878,407.044037 736.914856,386.224548 
	C736.899048,382.357910 738.004578,380.464386 742.336060,380.576233 
	C751.989868,380.825531 761.657776,380.778412 771.313904,380.570099 
	C775.318420,380.483734 776.418091,382.076935 776.421143,385.875488 
	C776.429382,396.197968 776.572388,396.196350 766.248657,396.195770 
	C762.917542,396.195587 759.584778,396.270081 756.255737,396.189911 
	C753.677490,396.127808 752.789673,397.235138 752.810974,399.805542 
	C752.908813,411.630127 752.915649,423.456482 752.811340,435.280975 
	C752.787292,438.012482 753.987854,438.726685 756.424866,438.695740 
	C762.253418,438.621613 768.092773,438.480255 773.910095,438.748444 
	C777.990723,438.936523 779.034241,437.174652 778.999878,433.428894 
	C778.860779,418.273254 778.932434,403.115692 778.922974,387.958862 
	C778.918396,380.638153 778.915039,380.638123 785.986511,380.627625 
	C794.910828,380.614319 794.758301,380.617157 794.922546,389.556824 
	C795.274292,408.702454 793.970215,427.838837 794.810791,446.991302 
	C795.118103,453.994507 794.590942,454.191284 787.490540,454.212738 
	C782.493713,454.227844 777.496765,454.218536 771.999939,454.220398 
z"/>
<path fill="#000000" opacity="1.000000" stroke="none" 
	d="
M837.999268,380.645599 
	C843.331177,380.657074 848.163574,380.709229 852.995056,380.662689 
	C855.425293,380.639313 856.725281,381.498505 856.669678,384.146423 
	C856.533447,390.637482 856.355652,397.135010 856.516541,403.621979 
	C856.604065,407.149689 855.049622,409.056458 852.103943,410.637817 
	C841.099243,416.545654 830.259094,422.762939 819.203552,428.571808 
	C815.359314,430.591675 814.067200,433.133331 814.529846,437.377808 
	C814.996338,441.657501 814.743591,446.021362 814.710632,450.347626 
	C814.690735,452.962189 813.337463,454.188202 810.625732,454.209473 
	C796.679810,454.318665 799.016541,454.886383 798.953796,443.456177 
	C798.852295,424.961517 798.905334,406.465973 798.909912,387.970795 
	C798.911743,380.664520 798.932312,380.651733 806.007568,380.644745 
	C816.504883,380.634369 827.002136,380.644257 837.999268,380.645599 
M821.740356,396.204285 
	C819.464111,396.680786 815.573975,394.887604 815.201233,397.813446 
	C814.602356,402.515076 813.806458,407.511353 815.111877,412.449768 
	C825.571472,408.622528 838.938171,400.473053 840.496033,396.700684 
	C834.482056,395.700012 828.556396,396.396790 821.740356,396.204285 
z"/>
<path fill="#000000" opacity="1.000000" stroke="none" 
	d="
M626.034119,451.604858 
	C623.750854,454.019379 614.097473,455.083679 611.958435,453.616638 
	C610.658325,452.724976 610.674866,451.353912 610.674438,450.031860 
	C610.667664,428.205872 610.696228,406.379852 610.664978,384.553925 
	C610.661072,381.817810 611.810791,380.663666 614.548096,380.670197 
	C631.042358,380.709534 647.537048,380.719421 664.031128,380.644531 
	C667.098755,380.630585 668.177368,382.060364 668.156067,384.897949 
	C668.107239,391.395294 668.032593,397.894958 668.157410,404.390045 
	C668.219910,407.644287 666.275146,409.035980 663.796204,410.387329 
	C652.682739,416.445465 641.677246,422.703979 630.509216,428.658447 
	C627.277100,430.381714 625.970825,432.527405 626.139771,436.159515 
	C626.371704,441.144928 626.143799,446.151733 626.034119,451.604858 
M627.354126,396.707275 
	C625.106140,401.767914 626.507202,406.888824 626.458801,412.157013 
	C634.325562,410.191620 650.972168,400.041901 651.981934,396.387848 
	C643.953430,396.387848 636.057190,396.387848 627.354126,396.707275 
z"/>
<path fill="#000000" opacity="1.000000" stroke="none" 
	d="
M393.112671,392.024780 
	C395.495697,404.301636 390.455383,411.187469 379.518158,415.642303 
	C370.946320,419.133667 363.140137,424.481201 354.904633,428.835449 
	C352.219269,430.255280 350.992188,432.065643 351.097168,435.137604 
	C351.261932,439.957947 351.090942,444.788910 351.119019,449.615021 
	C351.136871,452.687286 349.771027,454.004211 346.615021,454.213226 
	C335.774994,454.931244 335.623627,454.868225 335.627991,444.296265 
	C335.635864,425.156677 335.761322,406.015472 335.533234,386.878601 
	C335.477325,382.187073 336.722351,380.467804 341.648193,380.563568 
	C356.288574,380.848175 370.938080,380.654633 385.584045,380.661163 
	C393.112213,380.664520 393.112366,380.677246 393.114868,388.035095 
	C393.115265,389.200165 393.113342,390.365234 393.112671,392.024780 
M367.078491,404.518127 
	C370.463013,402.177734 375.015015,401.440521 378.368317,396.327209 
	C369.227203,396.327209 361.364777,396.309509 353.502655,396.347778 
	C352.421112,396.353027 351.463043,397.023438 351.397034,398.113678 
	C351.113068,402.803467 350.726105,407.517700 351.785522,412.911560 
	C357.167267,409.959961 361.801270,407.418488 367.078491,404.518127 
z"/>
<path fill="#000000" opacity="1.000000" stroke="none" 
	d="
M549.678589,453.258118 
	C547.967773,446.057190 548.440002,439.908600 553.008606,433.747070 
	C565.002014,417.571869 576.323608,400.898773 587.923706,384.431641 
	C590.203430,381.195404 601.655762,378.763550 604.737793,381.141937 
	C607.350769,383.158447 605.964111,385.707123 604.527283,387.784973 
	C599.132874,395.586060 593.609741,403.297974 588.180908,411.075439 
	C586.228821,413.872040 584.406921,416.759613 582.404541,419.788849 
	C589.532593,421.428223 590.196716,421.033875 590.587708,415.122192 
	C590.701294,413.405487 591.047607,411.829315 592.040100,410.431824 
	C596.108276,404.703583 600.190918,398.985596 604.315002,393.198273 
	C606.584045,395.036011 606.109741,396.820648 606.113892,398.397095 
	C606.157776,415.047882 606.005981,431.700684 606.236938,448.348419 
	C606.302429,453.071289 604.511841,454.751312 600.080017,454.217896 
	C599.915955,454.198181 599.747314,454.215576 599.580811,454.216736 
	C590.679688,454.279327 590.703918,454.279205 590.659607,445.252655 
	C590.610657,435.276245 591.521301,436.176392 581.493530,436.070648 
	C579.828552,436.053101 578.163330,436.051270 576.498291,436.059204 
	C569.721619,436.091583 564.268799,440.820709 564.394104,447.569580 
	C564.494080,452.949341 562.540222,454.856354 557.419434,454.226624 
	C554.966064,453.924896 552.417908,454.613739 549.678589,453.258118 
z"/>
<path fill="#000000" opacity="1.000000" stroke="none" 
	d="
M331.098389,443.928040 
	C331.028961,454.046967 327.844391,456.390289 318.290405,454.053040 
	C316.191650,453.539612 315.684570,452.276978 315.672913,450.460297 
	C315.650482,446.964355 315.544495,443.465454 315.651825,439.973297 
	C315.737762,437.175720 314.465973,436.051117 311.778290,436.074585 
	C307.284119,436.113831 302.783081,435.918976 298.296417,436.103149 
	C294.210876,436.270813 289.650482,442.054749 289.162659,447.110199 
	C288.936188,449.457397 290.151001,452.858459 287.090210,453.675873 
	C283.131195,454.733185 278.861786,454.775055 274.828339,453.418854 
	C274.291809,453.238434 273.798279,452.067627 273.780518,451.343353 
	C273.639648,445.593231 273.124268,440.103760 277.079132,434.760712 
	C289.157806,418.442383 300.649841,401.689941 312.374939,385.109772 
	C315.095581,381.262543 325.321838,378.646759 329.342743,381.072540 
	C332.352142,382.888092 330.908295,385.378876 329.445587,387.487335 
	C323.280151,396.374786 317.048920,405.216522 310.864624,414.090881 
	C309.655518,415.825958 308.033813,417.361053 307.836639,419.652985 
	C314.147614,421.744171 315.241028,421.069153 315.666565,414.998047 
	C315.746643,413.855865 315.727173,412.509796 316.313507,411.631683 
	C320.414337,405.490356 324.662384,399.447266 328.863312,393.372742 
	C329.608124,393.564606 330.352966,393.756470 331.097778,393.948334 
	C331.097778,410.445221 331.097778,426.942078 331.098389,443.928040 
z"/>
<path fill="#000000" opacity="1.000000" stroke="none" 
	d="
M502.289490,439.998474 
	C502.291351,442.161133 502.294373,443.827271 502.293579,445.493378 
	C502.289429,454.251526 502.289093,454.251526 493.553162,454.186279 
	C486.761566,454.135559 486.736664,454.135559 486.733551,447.101898 
	C486.724762,427.108490 486.883728,407.113281 486.640076,387.122894 
	C486.579620,382.163483 487.914673,380.347382 493.072845,380.543213 
	C503.308380,380.931854 502.176178,379.922729 502.279449,389.744354 
	C502.333740,394.908752 502.398926,400.077240 502.252197,405.237976 
	C502.164398,408.324921 503.078339,409.876465 506.474182,409.775330 
	C512.300476,409.601837 518.138062,409.618561 523.965881,409.761627 
	C527.353882,409.844788 528.791199,408.584930 528.713013,405.095917 
	C528.563721,398.435089 528.779053,391.766602 528.664978,385.104340 
	C528.610962,381.952026 529.749939,380.608765 533.017456,380.639801 
	C546.072510,380.763824 544.076599,379.496155 544.180786,391.291107 
	C544.264648,400.787140 544.072205,410.287079 544.261536,419.780090 
	C544.343018,423.868683 542.874939,425.411316 538.734558,425.326813 
	C528.575562,425.119476 518.405884,425.403625 508.248352,425.161224 
	C503.859222,425.056488 501.654449,426.192383 502.230347,431.011841 
	C502.563995,433.804352 502.289612,436.669495 502.289490,439.998474 
z"/>
<path fill="#000000" opacity="1.000000" stroke="none" 
	d="
M244.868149,441.041229 
	C240.361877,432.487854 236.023132,424.264008 231.684387,416.040192 
	C231.307770,416.079193 230.931168,416.118195 230.554550,416.157227 
	C230.554550,423.003143 230.521713,429.849274 230.569717,436.694855 
	C230.590729,439.690247 230.865829,442.684387 230.871307,445.679352 
	C230.886887,454.191833 230.830490,454.216583 222.228104,454.189606 
	C214.917648,454.166687 214.909805,454.166718 214.901917,447.074005 
	C214.879684,427.079254 214.986481,407.083160 214.760529,387.090759 
	C214.704254,382.110962 216.309738,380.677795 221.339706,380.449341 
	C228.005539,380.146545 231.689484,382.166656 234.790176,388.401459 
	C245.022110,408.975586 256.035126,429.161072 266.725189,449.507904 
	C267.253662,450.513763 267.564301,451.634033 267.968018,452.679352 
	C260.082306,456.802948 252.030411,454.456696 248.150787,447.070160 
	C247.144196,445.153687 246.075729,443.269684 244.868149,441.041229 
z"/>
<path fill="#000000" opacity="1.000000" stroke="none" 
	d="
M413.176941,385.218964 
	C413.196686,391.848083 413.347778,398.005615 413.160736,404.152863 
	C413.067413,407.219818 414.245483,409.037781 416.822662,410.558472 
	C424.512817,415.096069 432.086914,419.830292 440.556702,425.007477 
	C430.305969,430.370636 435.408203,439.231689 434.176880,446.557495 
	C433.761627,449.028107 435.480591,452.621552 432.253204,453.645691 
	C428.339966,454.887421 424.001068,454.727325 419.973785,453.547424 
	C418.320618,453.063049 418.689148,451.021210 418.674988,449.562805 
	C418.628235,444.740356 418.381927,439.898285 418.723724,435.100220 
	C419.016418,430.992126 417.315735,428.633972 413.876343,426.771851 
	C409.495453,424.399963 405.357483,421.583557 401.025330,419.115845 
	C398.578278,417.721985 397.576996,415.859039 397.608582,413.039764 
	C397.712860,403.727905 397.711945,394.413177 397.596283,385.101471 
	C397.557343,381.968201 398.622528,380.441833 401.909424,380.647522 
	C404.228546,380.792664 406.567291,380.752991 408.891449,380.655823 
	C411.803375,380.534058 413.270599,381.781494 413.176941,385.218964 
z"/>
<path fill="#000000" opacity="1.000000" stroke="none" 
	d="
M194.834778,394.013275 
	C194.832443,393.016846 194.831467,392.518036 194.829178,392.019196 
	C194.772781,379.764465 194.768326,379.833313 206.822784,380.611450 
	C209.519226,380.785492 210.669037,381.633759 210.650543,384.463684 
	C210.509232,406.077301 210.410217,427.691742 210.456818,449.305573 
	C210.464859,453.039124 208.981522,454.164581 205.433411,454.247681 
	C194.822998,454.496307 194.826355,454.606628 194.828323,443.894928 
	C194.831360,427.433563 194.833206,410.972229 194.834778,394.013275 
z"/>
<path fill="#000000" opacity="1.000000" stroke="none" 
	d="
M262.903687,380.655273 
	C266.733246,380.420227 269.209351,380.907684 269.182007,385.291718 
	C269.065735,403.928558 269.144196,422.566559 269.119812,441.204102 
	C269.118591,442.132324 269.340088,443.258820 268.100128,443.841461 
	C266.087402,443.529114 265.848724,441.616699 265.110168,440.261780 
	C253.614670,419.173492 253.625793,419.167419 253.629303,395.089600 
	C253.629578,393.259094 253.615707,391.428467 253.633270,389.598145 
	C253.727692,379.753815 252.756897,380.765289 262.903687,380.655273 
z"/>
<path fill="#000000" opacity="1.000000" stroke="none" 
	d="
M432.437561,416.792908 
	C429.372742,414.858337 430.390808,413.086884 432.591766,412.288422 
	C439.510040,409.778442 440.158051,404.522522 439.653931,398.266815 
	C439.280975,393.638245 439.646423,388.952942 439.608276,384.293488 
	C439.587891,381.806213 440.653900,380.691620 443.193726,380.673798 
	C457.592651,380.572754 454.964264,379.708130 455.139252,391.558563 
	C455.242462,398.547211 455.254120,405.540131 455.136200,412.528259 
	C455.020782,419.369019 445.369965,424.623779 439.571503,421.108368 
	C437.294861,419.728088 435.010254,418.360901 432.437561,416.792908 
z"/>
<path fill="#000000" opacity="1.000000" stroke="none" 
	d="
M849.734131,435.297485 
	C853.911377,441.266602 857.874329,446.946625 861.879395,452.686920 
	C853.733337,456.650421 844.258728,454.335663 839.540283,447.619873 
	C835.726746,442.192139 831.960510,436.728790 828.029297,431.387268 
	C826.365662,429.126709 826.596008,427.828156 829.006042,426.240234 
	C838.847778,419.755493 838.847290,419.691193 845.552673,429.281525 
	C846.883301,431.184723 848.197937,433.099182 849.734131,435.297485 
z"/>
<path fill="#000000" opacity="1.000000" stroke="none" 
	d="
M366.859619,435.086670 
	C365.886261,433.706146 365.165802,432.582489 364.334869,431.547516 
	C362.391968,429.127686 362.953400,427.440979 365.630280,426.043976 
	C376.702545,420.265533 374.275482,418.771149 381.693817,429.292999 
	C386.290009,435.812012 390.863922,442.346832 395.415588,448.897003 
	C396.326813,450.208344 397.550842,451.421814 397.516235,453.788452 
	C392.156555,454.505188 386.912384,454.295197 381.683685,453.963440 
	C379.853302,453.847321 378.983124,452.181366 378.022827,450.830627 
	C374.364563,445.685059 370.715088,440.533295 366.859619,435.086670 
z"/>
<path fill="#000000" opacity="1.000000" stroke="none" 
	d="
M650.708862,447.284851 
	C646.239258,440.899109 641.962891,434.819305 637.615845,428.639130 
	C641.120056,425.298676 645.064392,423.860718 648.631104,421.836945 
	C649.947815,421.089844 651.300903,421.432831 652.157349,422.696686 
	C658.945312,432.713104 666.769226,442.022095 672.627075,452.671661 
	C672.681030,452.769867 672.546448,452.971741 672.499878,453.125214 
	C663.490723,456.444794 655.769470,454.466217 650.708862,447.284851 
z"/>
<path fill="#000000" opacity="1.000000" stroke="none" 
	d="
M528.691528,433.204041 
	C528.347046,429.282349 530.044128,428.123199 533.347900,427.948578 
	C544.077637,427.381531 544.242310,427.443390 544.250000,438.084290 
	C544.252869,442.065308 544.161011,446.047180 544.220886,450.027039 
	C544.265442,452.992920 542.831970,454.011230 539.976318,454.216644 
	C528.912842,455.012299 528.696228,454.888428 528.682129,444.129517 
	C528.677551,440.645996 528.685913,437.162506 528.691528,433.204041 
z"/>
</svg>